<svg xmlns="http://www.w3.org/2000/svg" viewBox="0 0 200 240" fill="none">
  <!-- Hair (back) -->
  <ellipse cx="100" cy="80" rx="68" ry="72" fill="#3a2a1a"/>
  <!-- Head -->
  <ellipse cx="100" cy="110" rx="58" ry="68" fill="#e8c9a0"/>
  <!-- Hair (top/front) -->
  <path d="M42 85 C42 50, 70 28, 100 28 C130 28, 158 50, 158 85 C155 72, 140 55, 120 52 C108 50, 95 55, 85 52 C70 48, 55 60, 42 85Z" fill="#3a2a1a"/>
  <!-- Hair wisps -->
  <path d="M88 30 C90 22, 95 20, 92 28" stroke="#3a2a1a" stroke-width="2.5" fill="none"/>
  <path d="M80 34 C78 26, 82 22, 83 30" stroke="#3a2a1a" stroke-width="2" fill="none"/>
  <!-- Ears -->
  <ellipse cx="42" cy="115" rx="10" ry="14" fill="#dbb88a"/>
  <ellipse cx="158" cy="115" rx="10" ry="14" fill="#dbb88a"/>
  <!-- Eyebrows -->
  <path d="M68 92 C74 87, 84 87, 90 90" stroke="#3a2a1a" stroke-width="2.8" stroke-linecap="round" fill="none"/>
  <path d="M110 90 C116 87, 126 87, 132 92" stroke="#3a2a1a" stroke-width="2.8" stroke-linecap="round" fill="none"/>
  <!-- Eyes -->
  <ellipse cx="80" cy="102" rx="9" ry="6" fill="#fff"/>
  <ellipse cx="120" cy="102" rx="9" ry="6" fill="#fff"/>
  <circle cx="80" cy="102" r="4" fill="#5a3a20"/>
  <circle cx="120" cy="102" r="4" fill="#5a3a20"/>
  <circle cx="81" cy="101" r="1.5" fill="#fff"/>
  <circle cx="121" cy="101" r="1.5" fill="#fff"/>
  <!-- Nose -->
  <path d="M97 106 C94 116, 93 122, 96 125 C98 127, 104 127, 106 125 C108 122, 107 116, 104 106" stroke="#c9a87a" stroke-width="1.8" fill="none" stroke-linecap="round"/>
  <!-- Stubble area (subtle dots/texture) -->
  <rect x="65" y="130" width="70" height="40" rx="20" fill="#e8c9a0" opacity="0"/>
  <g fill="#9a8060" opacity="0.3">
    <circle cx="72" cy="138" r="0.8"/><circle cx="76" cy="136" r="0.7"/><circle cx="80" cy="138" r="0.8"/>
    <circle cx="84" cy="136" r="0.7"/><circle cx="88" cy="138" r="0.8"/><circle cx="92" cy="136" r="0.7"/>
    <circle cx="96" cy="138" r="0.8"/><circle cx="100" cy="136" r="0.7"/><circle cx="104" cy="138" r="0.8"/>
    <circle cx="108" cy="136" r="0.7"/><circle cx="112" cy="138" r="0.8"/><circle cx="116" cy="136" r="0.7"/>
    <circle cx="120" cy="138" r="0.8"/><circle cx="124" cy="136" r="0.7"/><circle cx="128" cy="138" r="0.8"/>
    <circle cx="74" cy="142" r="0.7"/><circle cx="78" cy="144" r="0.8"/><circle cx="82" cy="142" r="0.7"/>
    <circle cx="86" cy="144" r="0.8"/><circle cx="90" cy="142" r="0.7"/><circle cx="94" cy="144" r="0.8"/>
    <circle cx="98" cy="142" r="0.7"/><circle cx="102" cy="144" r="0.8"/><circle cx="106" cy="142" r="0.7"/>
    <circle cx="110" cy="144" r="0.8"/><circle cx="114" cy="142" r="0.7"/><circle cx="118" cy="144" r="0.8"/>
    <circle cx="122" cy="142" r="0.7"/><circle cx="126" cy="144" r="0.8"/>
    <circle cx="76" cy="148" r="0.8"/><circle cx="80" cy="150" r="0.7"/><circle cx="84" cy="148" r="0.8"/>
    <circle cx="88" cy="150" r="0.7"/><circle cx="92" cy="148" r="0.8"/><circle cx="96" cy="150" r="0.7"/>
    <circle cx="100" cy="148" r="0.8"/><circle cx="104" cy="150" r="0.7"/><circle cx="108" cy="148" r="0.8"/>
    <circle cx="112" cy="150" r="0.7"/><circle cx="116" cy="148" r="0.8"/><circle cx="120" cy="150" r="0.7"/>
    <circle cx="124" cy="148" r="0.8"/>
    <circle cx="78" cy="154" r="0.7"/><circle cx="82" cy="156" r="0.8"/><circle cx="86" cy="154" r="0.7"/>
    <circle cx="90" cy="156" r="0.8"/><circle cx="94" cy="154" r="0.7"/><circle cx="98" cy="156" r="0.8"/>
    <circle cx="102" cy="154" r="0.7"/><circle cx="106" cy="156" r="0.8"/><circle cx="110" cy="154" r="0.7"/>
    <circle cx="114" cy="156" r="0.8"/><circle cx="118" cy="154" r="0.7"/><circle cx="122" cy="156" r="0.8"/>
    <!-- Chin stubble -->
    <circle cx="86" cy="160" r="0.7"/><circle cx="90" cy="162" r="0.8"/><circle cx="94" cy="160" r="0.7"/>
    <circle cx="98" cy="162" r="0.8"/><circle cx="102" cy="160" r="0.7"/><circle cx="106" cy="162" r="0.8"/>
    <circle cx="110" cy="160" r="0.7"/><circle cx="114" cy="162" r="0.8"/>
    <!-- Jaw line stubble -->
    <circle cx="60" cy="134" r="0.7"/><circle cx="64" cy="136" r="0.8"/><circle cx="68" cy="134" r="0.7"/>
    <circle cx="132" cy="134" r="0.7"/><circle cx="136" cy="136" r="0.8"/><circle cx="140" cy="134" r="0.7"/>
    <circle cx="62" cy="140" r="0.8"/><circle cx="66" cy="142" r="0.7"/>
    <circle cx="134" cy="140" r="0.8"/><circle cx="138" cy="142" r="0.7"/>
  </g>
  <!-- Smile -->
  <path d="M78 140 C85 152, 100 156, 122 140" stroke="#b5886a" stroke-width="2.5" stroke-linecap="round" fill="none"/>
  <!-- Smile lines / dimples -->
  <path d="M74 138 C72 142, 74 145, 76 143" stroke="#d4a882" stroke-width="1.2" fill="none"/>
  <path d="M126 138 C128 142, 126 145, 124 143" stroke="#d4a882" stroke-width="1.2" fill="none"/>
  <!-- Crow's feet / smile lines near eyes -->
  <path d="M62 98 C58 96, 56 100, 58 103" stroke="#d4a882" stroke-width="0.8" fill="none"/>
  <path d="M138 98 C142 96, 144 100, 142 103" stroke="#d4a882" stroke-width="0.8" fill="none"/>
  <!-- Neck -->
  <path d="M78 172 L78 210 L122 210 L122 172" fill="#e0be92"/>
  <!-- T-shirt -->
  <path d="M40 240 L40 210 C40 195, 60 188, 78 210 L78 240Z" fill="#7aab8f"/>
  <path d="M160 240 L160 210 C160 195, 140 188, 122 210 L122 240Z" fill="#7aab8f"/>
  <path d="M78 210 L122 210 L122 240 L78 240Z" fill="#7aab8f"/>
  <!-- Collar -->
  <path d="M82 200 C90 212, 110 212, 118 200" stroke="#6a9a7e" stroke-width="2" fill="none"/>
  <!-- Chin/jaw line -->
  <path d="M48 120 C48 155, 70 175, 100 175 C130 175, 152 155, 152 120" stroke="#d4a882" stroke-width="1.5" fill="none" opacity="0.4"/>
</svg>
