<svg xmlns="http://www.w3.org/2000/svg" viewBox="0 0 200 260" fill="none" stroke="#1a1a1a" stroke-width="1.5" stroke-linecap="round" stroke-linejoin="round">
  <!-- Head outline -->
  <path d="M60 90 C60 50, 80 28, 100 26 C120 28, 140 50, 140 90 C140 110, 138 125, 132 138 C128 146, 120 156, 112 162 L108 164 C106 165, 104 166, 100 166 C96 166, 94 165, 92 164 L88 162 C80 156, 72 146, 68 138 C62 125, 60 110, 60 90Z"/>

  <!-- Hair -->
  <path d="M60 80 C60 52, 72 34, 84 30 C88 28, 94 26, 100 26 C106 26, 112 28, 116 30 C128 34, 140 52, 140 80" fill="#1a1a1a" stroke="none" opacity="0.7"/>
  <path d="M58 78 C58 46, 74 30, 100 26 C126 30, 142 46, 142 78 L140 82 C140 54, 126 36, 100 32 C74 36, 60 54, 60 82Z" fill="#1a1a1a" stroke="none" opacity="0.5"/>

  <!-- Left eyebrow -->
  <path d="M72 78 C76 74, 82 73, 88 75" stroke-width="2"/>
  <!-- Right eyebrow -->
  <path d="M112 75 C118 73, 124 74, 128 78" stroke-width="2"/>

  <!-- Left eye -->
  <ellipse cx="80" cy="88" rx="7" ry="4.5"/>
  <circle cx="80" cy="88" r="2.5" fill="#1a1a1a" stroke="none"/>
  <!-- Right eye -->
  <ellipse cx="120" cy="88" rx="7" ry="4.5"/>
  <circle cx="120" cy="88" r="2.5" fill="#1a1a1a" stroke="none"/>

  <!-- Nose -->
  <path d="M100 85 L98 105 C96 110, 94 112, 92 113"/>
  <path d="M92 113 C96 115, 100 116, 104 115 C106 114, 108 112, 106 110"/>

  <!-- Mouth -->
  <path d="M88 126 C92 130, 96 131, 100 131 C104 131, 108 130, 112 126"/>
  <path d="M90 127 C94 124, 100 123, 106 124"/>

  <!-- Stubble area (dots) -->
  <g fill="#1a1a1a" stroke="none" opacity="0.15">
    <circle cx="82" cy="135" r="0.7"/><circle cx="86" cy="138" r="0.7"/>
    <circle cx="90" cy="140" r="0.7"/><circle cx="94" cy="142" r="0.7"/>
    <circle cx="98" cy="143" r="0.7"/><circle cx="102" cy="142" r="0.7"/>
    <circle cx="106" cy="140" r="0.7"/><circle cx="110" cy="138" r="0.7"/>
    <circle cx="114" cy="135" r="0.7"/><circle cx="118" cy="132" r="0.7"/>
    <circle cx="84" cy="132" r="0.7"/><circle cx="88" cy="134" r="0.7"/>
    <circle cx="92" cy="136" r="0.7"/><circle cx="96" cy="138" r="0.7"/>
    <circle cx="100" cy="139" r="0.7"/><circle cx="104" cy="138" r="0.7"/>
    <circle cx="108" cy="136" r="0.7"/><circle cx="112" cy="134" r="0.7"/>
    <circle cx="116" cy="130" r="0.7"/><circle cx="80" cy="128" r="0.7"/>
    <circle cx="78" cy="122" r="0.7"/><circle cx="122" cy="122" r="0.7"/>
    <circle cx="120" cy="128" r="0.7"/>
  </g>

  <!-- Ears -->
  <path d="M60 82 C54 84, 52 92, 54 100 C56 106, 58 108, 60 106"/>
  <path d="M140 82 C146 84, 148 92, 146 100 C144 106, 142 108, 140 106"/>

  <!-- Neck -->
  <path d="M88 162 L86 180 L84 190"/>
  <path d="M112 162 L114 180 L116 190"/>

  <!-- T-shirt collar (green/dark) -->
  <path d="M84 190 C88 196, 94 200, 100 202 C106 200, 112 196, 116 190" stroke="#2d5a3d" stroke-width="2"/>

  <!-- Jacket/fleece -->
  <path d="M84 190 L72 194 C56 200, 42 212, 36 240 L36 260" stroke-width="2"/>
  <path d="M116 190 L128 194 C144 200, 158 212, 164 240 L164 260" stroke-width="2"/>

  <!-- Jacket zipper line -->
  <path d="M100 202 L100 260" stroke-width="1" stroke-dasharray="4 3"/>

  <!-- Jacket collar/lapel -->
  <path d="M84 190 L78 186 C74 188, 72 192, 72 194" stroke-width="2"/>
  <path d="M116 190 L122 186 C126 188, 128 192, 128 194" stroke-width="2"/>

  <!-- Shoulder seams -->
  <path d="M72 194 L56 198" stroke-width="1.5"/>
  <path d="M128 194 L144 198" stroke-width="1.5"/>
</svg>
