<svg xmlns="http://www.w3.org/2000/svg" viewBox="0 0 200 240" width="200" height="240">
  <!-- Neck -->
  <path d="M82 170 L82 195 L118 195 L118 170" fill="#e8c4a8" stroke="#c4a080" stroke-width="1.5"/>

  <!-- Shirt (v-neck dark) -->
  <path d="M55 195 Q60 185 82 195 L100 215 L118 195 Q140 185 145 195 L150 240 L50 240 Z" fill="#2a2a35" stroke="#1a1a25" stroke-width="1"/>

  <!-- Face shape -->
  <ellipse cx="100" cy="120" rx="52" ry="62" fill="#edcbab" stroke="#c9a888" stroke-width="1.5"/>

  <!-- Beard/stubble area -->
  <path d="M60 135 Q62 170 80 185 Q100 195 120 185 Q138 170 140 135" fill="#d4b494" opacity="0.5"/>
  <!-- Stubble texture -->
  <g fill="#8a7a6a" opacity="0.35">
    <circle cx="72" cy="150" r="0.8"/><circle cx="76" cy="155" r="0.8"/><circle cx="80" cy="148" r="0.8"/>
    <circle cx="84" cy="158" r="0.8"/><circle cx="88" cy="152" r="0.8"/><circle cx="92" cy="160" r="0.8"/>
    <circle cx="96" cy="154" r="0.8"/><circle cx="100" cy="162" r="0.8"/><circle cx="104" cy="155" r="0.8"/>
    <circle cx="108" cy="160" r="0.8"/><circle cx="112" cy="152" r="0.8"/><circle cx="116" cy="158" r="0.8"/>
    <circle cx="120" cy="150" r="0.8"/><circle cx="124" cy="155" r="0.8"/><circle cx="128" cy="148" r="0.8"/>
    <circle cx="74" cy="162" r="0.8"/><circle cx="78" cy="168" r="0.8"/><circle cx="82" cy="164" r="0.8"/>
    <circle cx="86" cy="170" r="0.8"/><circle cx="90" cy="166" r="0.8"/><circle cx="94" cy="172" r="0.8"/>
    <circle cx="98" cy="168" r="0.8"/><circle cx="102" cy="174" r="0.8"/><circle cx="106" cy="168" r="0.8"/>
    <circle cx="110" cy="172" r="0.8"/><circle cx="114" cy="166" r="0.8"/><circle cx="118" cy="170" r="0.8"/>
    <circle cx="122" cy="164" r="0.8"/><circle cx="126" cy="162" r="0.8"/>
    <circle cx="76" cy="143" r="0.7"/><circle cx="82" cy="141" r="0.7"/><circle cx="88" cy="145" r="0.7"/>
    <circle cx="94" cy="143" r="0.7"/><circle cx="100" cy="147" r="0.7"/><circle cx="106" cy="143" r="0.7"/>
    <circle cx="112" cy="145" r="0.7"/><circle cx="118" cy="141" r="0.7"/><circle cx="124" cy="143" r="0.7"/>
    <circle cx="80" cy="175" r="0.7"/><circle cx="86" cy="177" r="0.7"/><circle cx="92" cy="178" r="0.7"/>
    <circle cx="98" cy="179" r="0.7"/><circle cx="104" cy="178" r="0.7"/><circle cx="110" cy="177" r="0.7"/>
    <circle cx="116" cy="175" r="0.7"/><circle cx="120" cy="172" r="0.7"/>
  </g>

  <!-- Ears -->
  <ellipse cx="48" cy="120" rx="8" ry="14" fill="#e0bc9c" stroke="#c9a888" stroke-width="1"/>
  <ellipse cx="152" cy="120" rx="8" ry="14" fill="#e0bc9c" stroke="#c9a888" stroke-width="1"/>

  <!-- Hair -->
  <path d="M48 95 Q50 55 100 50 Q150 55 152 95 Q155 75 145 62 Q130 45 100 42 Q70 45 55 62 Q45 75 48 95 Z" fill="#3d2e1e" stroke="#2a1f14" stroke-width="1"/>
  <!-- Hair fringe swept right -->
  <path d="M55 78 Q60 58 85 52 Q70 60 62 75 Z" fill="#3d2e1e"/>
  <path d="M60 85 Q68 62 95 54 Q78 65 68 82 Z" fill="#4a3828" opacity="0.7"/>
  <!-- Hair side texture -->
  <path d="M48 95 Q46 80 55 68" fill="none" stroke="#2a1f14" stroke-width="2" opacity="0.5"/>
  <path d="M152 95 Q154 80 145 68" fill="none" stroke="#2a1f14" stroke-width="2" opacity="0.5"/>

  <!-- Eyebrows -->
  <path d="M70 98 Q80 93 92 96" fill="none" stroke="#3d2e1e" stroke-width="2.5" stroke-linecap="round"/>
  <path d="M108 96 Q120 93 130 98" fill="none" stroke="#3d2e1e" stroke-width="2.5" stroke-linecap="round"/>

  <!-- Eyes -->
  <ellipse cx="81" cy="110" rx="9" ry="6" fill="white" stroke="#888" stroke-width="0.5"/>
  <circle cx="81" cy="110" r="4" fill="#6b5a3e"/>
  <circle cx="81" cy="110" r="2" fill="#1a1a1a"/>
  <circle cx="79" cy="108" r="1.2" fill="white" opacity="0.7"/>

  <ellipse cx="119" cy="110" rx="9" ry="6" fill="white" stroke="#888" stroke-width="0.5"/>
  <circle cx="119" cy="110" r="4" fill="#6b5a3e"/>
  <circle cx="119" cy="110" r="2" fill="#1a1a1a"/>
  <circle cx="117" cy="108" r="1.2" fill="white" opacity="0.7"/>

  <!-- Glasses -->
  <rect x="63" y="100" width="36" height="24" rx="4" ry="4" fill="none" stroke="#2c3e50" stroke-width="3"/>
  <rect x="101" y="100" width="36" height="24" rx="4" ry="4" fill="none" stroke="#2c3e50" stroke-width="3"/>
  <!-- Bridge -->
  <path d="M99 110 Q100 106 101 110" fill="none" stroke="#2c3e50" stroke-width="2.5"/>
  <!-- Temple arms -->
  <path d="M63 108 L48 106" stroke="#2c3e50" stroke-width="2.5" stroke-linecap="round"/>
  <path d="M137 108 L152 106" stroke="#2c3e50" stroke-width="2.5" stroke-linecap="round"/>

  <!-- Nose -->
  <path d="M100 115 Q97 130 93 137 Q100 140 107 137 Q103 130 100 115" fill="none" stroke="#c9a888" stroke-width="1.5" stroke-linecap="round"/>

  <!-- Mouth (slight smile) -->
  <path d="M85 155 Q92 160 100 160 Q108 160 115 155" fill="none" stroke="#b08070" stroke-width="2" stroke-linecap="round"/>
  <!-- Upper lip hint -->
  <path d="M88 154 Q94 150 100 152 Q106 150 112 154" fill="none" stroke="#c09080" stroke-width="1" stroke-linecap="round"/>
</svg>
